<mxfile host="app.diagrams.net" agent="Mozilla/5.0 (Macintosh; Intel Mac OS X 10_15_7) AppleWebKit/537.36 (KHTML, like Gecko) Chrome/137.0.0.0 Safari/537.36" version="27.1.4">
  <diagram name="第 1 页" id="D38Ty01VPUGawlLg7D0x">
    <mxGraphModel dx="1186" dy="648" grid="1" gridSize="10" guides="1" tooltips="1" connect="1" arrows="1" fold="1" page="1" pageScale="1" pageWidth="827" pageHeight="1169" math="0" shadow="0">
      <root>
        <mxCell id="0" />
        <mxCell id="1" parent="0" />
        <mxCell id="I_WWBOCNlki6W_lXnDkC-1" value="登录页" style="rounded=0;whiteSpace=wrap;html=1;" vertex="1" parent="1">
          <mxGeometry x="80" y="290" width="160" height="110" as="geometry" />
        </mxCell>
        <mxCell id="I_WWBOCNlki6W_lXnDkC-4" value="项目管理&lt;div&gt;&lt;br&gt;&lt;div&gt;权限，选择某个项目进行配置&lt;/div&gt;&lt;/div&gt;" style="rounded=0;whiteSpace=wrap;html=1;" vertex="1" parent="1">
          <mxGeometry x="260" y="290" width="160" height="110" as="geometry" />
        </mxCell>
        <mxCell id="I_WWBOCNlki6W_lXnDkC-9" value="图标管理" style="rounded=0;whiteSpace=wrap;html=1;" vertex="1" parent="1">
          <mxGeometry x="80" y="680" width="160" height="110" as="geometry" />
        </mxCell>
        <mxCell id="I_WWBOCNlki6W_lXnDkC-16" value="字典管理" style="rounded=0;whiteSpace=wrap;html=1;" vertex="1" parent="1">
          <mxGeometry x="260" y="680" width="160" height="110" as="geometry" />
        </mxCell>
        <mxCell id="I_WWBOCNlki6W_lXnDkC-17" value="集合管理" style="rounded=0;whiteSpace=wrap;html=1;" vertex="1" parent="1">
          <mxGeometry x="440" y="680" width="160" height="110" as="geometry" />
        </mxCell>
        <mxCell id="I_WWBOCNlki6W_lXnDkC-18" value="表单管理" style="rounded=0;whiteSpace=wrap;html=1;" vertex="1" parent="1">
          <mxGeometry x="620" y="680" width="160" height="110" as="geometry" />
        </mxCell>
        <mxCell id="I_WWBOCNlki6W_lXnDkC-19" value="表格管理" style="rounded=0;whiteSpace=wrap;html=1;" vertex="1" parent="1">
          <mxGeometry x="80" y="810" width="160" height="110" as="geometry" />
        </mxCell>
        <mxCell id="I_WWBOCNlki6W_lXnDkC-20" value="菜单管理" style="rounded=0;whiteSpace=wrap;html=1;" vertex="1" parent="1">
          <mxGeometry x="260" y="810" width="160" height="110" as="geometry" />
        </mxCell>
        <mxCell id="I_WWBOCNlki6W_lXnDkC-21" value="权限管理&lt;br&gt;人员、角色" style="rounded=0;whiteSpace=wrap;html=1;" vertex="1" parent="1">
          <mxGeometry x="440" y="810" width="160" height="110" as="geometry" />
        </mxCell>
        <mxCell id="I_WWBOCNlki6W_lXnDkC-22" value="其他动态配置页面" style="rounded=0;whiteSpace=wrap;html=1;" vertex="1" parent="1">
          <mxGeometry x="80" y="940" width="160" height="110" as="geometry" />
        </mxCell>
        <mxCell id="I_WWBOCNlki6W_lXnDkC-23" value="已选择某个项目（数据库）" style="text;html=1;align=center;verticalAlign=middle;resizable=0;points=[];autosize=1;strokeColor=none;fillColor=none;fontSize=16;fontStyle=1" vertex="1" parent="1">
          <mxGeometry x="70" y="490" width="220" height="30" as="geometry" />
        </mxCell>
        <mxCell id="I_WWBOCNlki6W_lXnDkC-24" value="登录页" style="rounded=0;whiteSpace=wrap;html=1;" vertex="1" parent="1">
          <mxGeometry x="260" y="550" width="160" height="110" as="geometry" />
        </mxCell>
        <mxCell id="I_WWBOCNlki6W_lXnDkC-25" value="登录页配置" style="rounded=0;whiteSpace=wrap;html=1;" vertex="1" parent="1">
          <mxGeometry x="620" y="290" width="160" height="110" as="geometry" />
        </mxCell>
        <mxCell id="I_WWBOCNlki6W_lXnDkC-26" value="添加、删除数据库" style="text;html=1;align=center;verticalAlign=middle;resizable=0;points=[];autosize=1;strokeColor=none;fillColor=none;" vertex="1" parent="1">
          <mxGeometry x="250" y="258" width="120" height="30" as="geometry" />
        </mxCell>
        <mxCell id="I_WWBOCNlki6W_lXnDkC-27" value="数据库：projectManage" style="text;html=1;align=center;verticalAlign=middle;resizable=0;points=[];autosize=1;strokeColor=none;fillColor=none;" vertex="1" parent="1">
          <mxGeometry x="85" y="170" width="150" height="30" as="geometry" />
        </mxCell>
        <mxCell id="I_WWBOCNlki6W_lXnDkC-29" value="项目列表" style="rounded=0;whiteSpace=wrap;html=1;" vertex="1" parent="1">
          <mxGeometry x="80" y="550" width="160" height="110" as="geometry" />
        </mxCell>
        <mxCell id="I_WWBOCNlki6W_lXnDkC-32" value="表：用户表，项目表、登录页配置表" style="text;html=1;align=center;verticalAlign=middle;resizable=0;points=[];autosize=1;strokeColor=none;fillColor=none;" vertex="1" parent="1">
          <mxGeometry x="70" y="218" width="220" height="30" as="geometry" />
        </mxCell>
        <mxCell id="I_WWBOCNlki6W_lXnDkC-33" value="&lt;br&gt;&lt;div&gt;人员管理&lt;/div&gt;" style="rounded=0;whiteSpace=wrap;html=1;" vertex="1" parent="1">
          <mxGeometry x="440" y="290" width="160" height="110" as="geometry" />
        </mxCell>
        <mxCell id="I_WWBOCNlki6W_lXnDkC-34" value="针对项目展示人员" style="text;html=1;align=center;verticalAlign=middle;resizable=0;points=[];autosize=1;strokeColor=none;fillColor=none;" vertex="1" parent="1">
          <mxGeometry x="440" y="258" width="120" height="30" as="geometry" />
        </mxCell>
      </root>
    </mxGraphModel>
  </diagram>
</mxfile>
